<?xml version="1.0" encoding="UTF-8"?>
<svg version="1.1" xmlns="http://www.w3.org/2000/svg" width="1080" height="1080">
<path d="M0 0 C1.10057739 -0.00570007 2.20115479 -0.01140015 3.33508301 -0.01727295 C5.66136735 -0.02667598 7.98766472 -0.03323812 10.31396484 -0.03710938 C13.77857609 -0.04669469 17.24256181 -0.07771342 20.70703125 -0.109375 C41.43296839 -0.20878329 61.8885655 1.56342401 82.15625 6.015625 C83.36506836 6.27496826 84.57388672 6.53431152 85.81933594 6.80151367 C141.49590135 19.00889208 192.75267924 44.47333193 234.89453125 82.9765625 C236.47923535 84.41720259 238.07998839 85.8404657 239.69921875 87.2421875 C251.99249701 97.95117704 262.56412871 110.20202375 272.34375 123.203125 C272.79314941 123.79029297 273.24254883 124.37746094 273.70556641 124.98242188 C301.81505202 161.71720194 319.95283051 204.82125059 328.34375 250.203125 C328.50891113 251.05132812 328.67407227 251.89953125 328.84423828 252.7734375 C334.36599752 282.28372889 334.11269425 316.75780134 328.34375 346.203125 C328.15570801 347.2235791 327.96766602 348.2440332 327.77392578 349.29541016 C322.97288047 374.88188789 314.91977546 399.86930177 303.34375 423.203125 C302.93576172 424.04069336 302.52777344 424.87826172 302.10742188 425.74121094 C292.9021661 444.52414887 281.5475506 461.98192426 268.34375 478.203125 C267.71702393 478.97414551 267.71702393 478.97414551 267.07763672 479.76074219 C252.43117201 497.67969901 236.44284538 513.85198687 218.04052734 527.89599609 C216.42419106 529.14115645 214.83053783 530.41559815 213.23828125 531.69140625 C162.78446059 571.7858873 93.4751554 596.11606732 29.02734375 596.40625 C27.9808667 596.41326431 26.93438965 596.42027863 25.85620117 596.42750549 C22.49783985 596.44491399 19.13965479 596.45135772 15.78125 596.453125 C14.06109177 596.45413712 14.06109177 596.45413712 12.30618286 596.45516968 C-4.22290608 596.43969368 -20.34025764 596.07865527 -36.65625 593.203125 C-37.71376465 593.02620117 -38.7712793 592.84927734 -39.86083984 592.66699219 C-93.06523092 583.65562977 -144.2183446 562.85032142 -186.65625 529.203125 C-187.67203125 528.40003906 -188.6878125 527.59695313 -189.734375 526.76953125 C-195.90740012 521.79490067 -201.80632125 516.55087613 -207.65625 511.203125 C-208.6153125 510.34847656 -209.574375 509.49382812 -210.5625 508.61328125 C-258.86642065 465.40758569 -290.31470202 402.98459423 -299.65625 339.203125 C-299.83502686 338.00776123 -300.01380371 336.81239746 -300.19799805 335.58081055 C-301.90913656 323.28343728 -302.01385355 311.03939825 -301.96875 298.640625 C-301.96659485 297.57631256 -301.9644397 296.51200012 -301.96221924 295.41543579 C-301.91251821 280.13553012 -301.60246606 265.24093465 -298.65625 250.203125 C-298.46820801 249.1826709 -298.28016602 248.1622168 -298.08642578 247.11083984 C-293.28538047 221.52436211 -285.23227546 196.53694823 -273.65625 173.203125 C-273.24826172 172.36555664 -272.84027344 171.52798828 -272.41992188 170.66503906 C-263.21420332 151.88115686 -251.85810369 134.42683156 -238.65625 118.203125 C-238.0375 117.44008057 -238.0375 117.44008057 -237.40625 116.66162109 C-222.78378211 98.72346402 -206.74665354 82.59823347 -188.36914062 68.52636719 C-186.74707423 67.27328853 -185.14625171 65.99284999 -183.546875 64.7109375 C-133.46051905 24.92152275 -64.00657724 0.26509221 0 0 Z M-147.65625 137.203125 C-148.4709375 137.90695312 -149.285625 138.61078125 -150.125 139.3359375 C-187.67933886 172.49309112 -214.12676279 217.35383806 -221.65625 267.203125 C-221.77049316 267.92129395 -221.88473633 268.63946289 -222.00244141 269.37939453 C-230.37011111 323.71346313 -214.26864039 378.61514194 -182.15625 422.515625 C-168.85136256 439.6832217 -154.18601792 455.31067852 -136.65625 468.203125 C-135.80015137 468.84241943 -135.80015137 468.84241943 -134.92675781 469.49462891 C-121.35893486 479.60736327 -106.99556126 488.06485429 -91.65625 495.203125 C-90.95081055 495.5316748 -90.24537109 495.86022461 -89.51855469 496.19873047 C-28.87360306 523.99772508 41.72532676 525.5824176 104.109375 502.62109375 C131.05801827 492.34201578 155.49157137 478.08174768 177.34375 459.203125 C178.1584375 458.49929688 178.973125 457.79546875 179.8125 457.0703125 C190.20117025 447.89803719 199.91591506 438.22519578 208.34375 427.203125 C208.82424805 426.58260254 209.30474609 425.96208008 209.79980469 425.32275391 C231.57781199 397.01134441 245.47088402 364.36691003 251.34375 329.203125 C251.46234375 328.51637695 251.5809375 327.82962891 251.703125 327.12207031 C260.31045773 275.34998865 244.92918723 220.83417662 215.34375 178.203125 C211.25950409 172.65829559 206.86464196 167.39446216 202.34375 162.203125 C201.56515625 161.295625 200.7865625 160.388125 199.984375 159.453125 C197.81818928 156.98651936 195.60237841 154.58535994 193.34375 152.203125 C192.87533691 151.70748047 192.40692383 151.21183594 191.92431641 150.70117188 C183.98547473 142.35943335 175.59393284 135.0510292 166.34375 128.203125 C165.77011719 127.77402832 165.19648437 127.34493164 164.60546875 126.90283203 C85.85798503 68.2199583 -25.40805401 61.60655583 -147.65625 137.203125 Z " fill="#631720" transform="translate(550.65625,234.796875)"/>
<path d="M0 0 C0.86474855 -0.00367669 1.72949709 -0.00735338 2.62045014 -0.01114148 C5.52920945 -0.02218843 8.43793305 -0.02602384 11.34671021 -0.02983093 C13.42768467 -0.03609469 15.50865801 -0.04274141 17.58963013 -0.04974365 C23.25076079 -0.06715852 28.911883 -0.07770622 34.57303381 -0.08594918 C38.10771297 -0.0910971 41.6423895 -0.09717285 45.1770668 -0.10346031 C56.23007329 -0.12251163 67.28307308 -0.13674429 78.33609283 -0.14507228 C91.10700541 -0.15485293 103.87774504 -0.18119439 116.64859664 -0.22157317 C126.51277405 -0.25169483 136.37690176 -0.2665373 146.24112427 -0.26985329 C152.13617821 -0.2722078 158.03104737 -0.28122066 163.92605209 -0.30631447 C169.46971783 -0.32953179 175.01307627 -0.33385395 180.55677795 -0.32355309 C182.5929631 -0.32305611 184.62916306 -0.32942391 186.66530228 -0.34310913 C189.44227884 -0.36073157 192.21814099 -0.35376966 194.99511719 -0.34057617 C195.80338766 -0.35154542 196.61165813 -0.36251466 197.44442165 -0.37381631 C201.14109232 -0.33132854 203.40104103 0.0117861 206.58966255 1.94328022 C209.02910321 4.58533364 209.74829711 6.73642492 209.94509888 10.32002258 C209.54216046 13.87373684 208.4661858 16.79032062 207.18313599 20.13154602 C206.7873082 21.16245361 206.7873082 21.16245361 206.38348389 22.21418762 C203.0270044 30.84639648 199.36781439 39.35518678 195.70120239 47.85908508 C194.49001036 50.66928684 193.28541701 53.48225204 192.08157349 56.29560852 C191.30200947 58.1108776 190.52207492 59.92598761 189.74172974 61.74092102 C189.2103389 62.98174438 189.2103389 62.98174438 188.66821289 64.24763489 C187.02864266 68.04271827 185.3515311 71.81867685 183.57424927 75.5514679 C183.27858063 76.1750116 182.98291199 76.7985553 182.67828369 77.44099426 C180.7490587 80.56471957 177.95987955 82.68364259 174.62454224 84.14717102 C168.45402671 85.30132043 162.35355739 85.31876438 156.08963013 85.35249329 C154.94744019 85.36239288 153.80525024 85.37229248 152.62844849 85.38249207 C148.86805262 85.41397929 145.10764414 85.4388139 141.34719849 85.46357727 C138.73403096 85.48415783 136.12086667 85.50515459 133.50770569 85.52655029 C127.3420436 85.57633286 121.17635634 85.62132482 115.01064533 85.66457266 C107.98761233 85.71406894 100.96462449 85.76894085 93.94163525 85.82425225 C79.50264686 85.93785048 65.0636127 86.04454653 50.62454224 86.14717102 C49.30454224 89.11717102 47.98454224 92.08717102 46.62454224 95.14717102 C47.89352356 95.1427298 49.16250488 95.13828857 50.46994019 95.13371277 C62.41819348 95.0932016 74.36643288 95.06320339 86.31473923 95.04354668 C92.45774951 95.03310132 98.60070444 95.01892833 104.74368286 94.99629211 C110.66995031 94.97459067 116.59616445 94.96260806 122.52246857 94.95741653 C124.78553354 94.95371594 127.04859555 94.94648977 129.31163788 94.93571091 C132.47687631 94.92123198 135.64189331 94.91919159 138.80715942 94.92012024 C139.74655365 94.91292969 140.68594788 94.90573914 141.65380859 94.89833069 C142.94942215 94.90245468 142.94942215 94.90245468 144.27120972 94.90666199 C145.39395357 94.90389661 145.39395357 94.90389661 146.53937912 94.90107536 C148.97885693 95.18898804 150.54302948 95.85258393 152.62454224 97.14717102 C155.72958688 101.53706172 155.7879044 104.58529097 155.12612915 109.66282654 C154.25548588 113.97509574 152.54224495 117.85456678 150.76516724 121.86201477 C150.185784 123.20568871 150.185784 123.20568871 149.59469604 124.57650757 C148.36591259 127.41760921 147.12023059 130.25094747 145.87454224 133.08467102 C145.05318052 134.98200361 144.23285877 136.87978677 143.41360474 138.7780304 C142.61505336 140.61892793 141.81560316 142.45943587 141.01516724 144.29951477 C140.46799042 145.55779335 140.46799042 145.55779335 139.90975952 146.8414917 C131.74676362 165.39902343 131.74676362 165.39902343 127.62454224 168.14717102 C121.1576527 170.19730735 114.78506648 170.42568989 108.05593872 170.3742218 C107.04025314 170.37451385 106.02456757 170.37480591 104.97810364 170.37510681 C101.65052482 170.37372333 98.32317527 170.35820856 94.99563599 170.34248352 C92.67679466 170.3387499 90.35795175 170.33590458 88.03910828 170.33390808 C81.95806465 170.32629914 75.87711769 170.30667425 69.79611206 170.28450012 C63.58203438 170.26398256 57.36794096 170.25489375 51.15383911 170.24482727 C38.97736452 170.22342571 26.80096144 170.18932298 14.62454224 170.14717102 C14.42584093 170.75189963 14.22713963 171.35662825 14.02241707 171.97968197 C13.75787161 172.78002645 13.49332615 173.58037092 13.22076416 174.40496826 C12.96018785 175.19532187 12.69961155 175.98567549 12.43113899 176.79997921 C11.24765834 180.24390093 9.85714046 183.58396107 8.42922974 186.93232727 C8.12441177 187.65512375 7.81959381 188.37792023 7.50553894 189.12261963 C6.50740421 191.48662789 5.50408917 193.8483809 4.49954224 196.20967102 C3.0603139 199.59620882 1.62162051 202.98297346 0.18313599 206.36982727 C-0.18808884 207.2426535 -0.55931366 208.11547974 -0.94178772 209.01475525 C-3.2731665 214.50817969 -5.56333084 220.01688482 -7.82260132 225.54034424 C-9.32026024 229.1975574 -10.83251102 232.84864831 -12.34634399 236.49919128 C-13.0690919 238.25239546 -13.78521988 240.00834456 -14.49441528 241.76707458 C-15.49062789 244.23474396 -16.51041366 246.69143042 -17.53561401 249.14717102 C-17.82057236 249.87057175 -18.1055307 250.59397247 -18.39912415 251.33929443 C-20.86941423 257.14896697 -24.67945331 261.29916879 -30.37545776 264.14717102 C-33.00319585 264.26626105 -35.60526092 264.32550618 -38.23410034 264.34004211 C-39.04566086 264.3482196 -39.85722137 264.35639709 -40.69337463 264.36482239 C-43.38557188 264.38968399 -46.07771639 264.40619408 -48.76998901 264.42060852 C-49.68864935 264.4259322 -50.60730968 264.43125587 -51.55380821 264.43674088 C-56.41598044 264.46347545 -61.27812696 264.48284959 -66.14035034 264.49726868 C-71.16443646 264.51391985 -76.18786703 264.55870051 -81.21170521 264.60964012 C-85.07303121 264.64328279 -88.93420103 264.65484281 -92.79566002 264.66049576 C-94.64765116 264.66721621 -96.49963173 264.68245889 -98.35148048 264.70638657 C-100.94440893 264.73797873 -103.53556151 264.73808434 -106.12863159 264.73066711 C-106.89297516 264.74707245 -107.65731873 264.76347778 -108.44482422 264.78038025 C-112.39784962 264.73411623 -114.18669142 264.29543282 -117.33256531 261.82458496 C-119.89879822 258.46128126 -120.29673208 256.35784578 -120.37545776 252.14717102 C-119.66500854 249.07124329 -119.66500854 249.07124329 -118.44577026 245.90107727 C-117.97687378 244.67791809 -117.50797729 243.45475891 -117.02487183 242.1945343 C-114.2513504 235.32581108 -111.34454892 228.51530491 -108.39465332 221.72077942 C-106.38001738 217.07926626 -104.38072752 212.4311374 -102.37936401 207.78388977 C-101.9639183 206.82016449 -101.5484726 205.85643921 -101.12043762 204.86351013 C-96.75625899 194.73050702 -92.46905577 184.56548467 -88.18795776 174.39717102 C-80.63880405 156.47694336 -73.03138718 138.58204576 -65.40335083 120.69526672 C-59.15098289 106.03253507 -52.92212089 91.36032199 -46.73217773 76.67112732 C-43.67752807 69.42401823 -40.61678109 62.17948295 -37.55429077 54.9356842 C-36.74862908 53.02990261 -35.94322073 51.12401389 -35.13803101 49.21803284 C-32.64280099 43.31286406 -30.14078426 37.41065053 -27.6295166 31.51228333 C-26.84446026 29.66578739 -26.06150937 27.81839467 -25.28082275 25.970047 C-24.20486262 23.42372221 -23.12121932 20.88080195 -22.03561401 18.33857727 C-21.72292572 17.59388687 -21.41023743 16.84919647 -21.08807373 16.0819397 C-18.73877371 10.61491799 -16.05589222 5.01361687 -11.37545776 1.14717102 C-7.56010488 -0.12461327 -3.9756249 -0.00090184 0 0 Z " fill="#631720" transform="translate(530.3754577636719,406.8528289794922)"/>
</svg>
